<svg width="80" height="36" viewBox="0 0 80 36" fill="none" xmlns="http://www.w3.org/2000/svg">
<g clip-path="url(#clip0_288_2477)">
<path d="M15.848 29.665V34.8227C15.848 35.103 15.624 35.3273 15.344 35.3273H11.008C6.488 35.3273 3.744 32.5642 3.744 28.0151V20.2945H1.008C0.448 20.2945 0 19.8461 0 19.2854V19.0452C0 18.7889 0.096 18.5406 0.272 18.3564L8.856 9.21023C9.048 9.01001 9.312 8.88988 9.592 8.88988C10.152 8.88988 10.6 9.33838 10.6 9.899V14.8725H15.232C15.512 14.8725 15.736 15.0968 15.736 15.3771V19.79C15.736 20.0703 15.512 20.2945 15.232 20.2945H10.784V26.8058C10.784 28.2714 11.664 29.1524 13.152 29.1524H15.352C15.632 29.1524 15.856 29.3766 15.856 29.6569L15.848 29.665Z" fill="#42C1E8"/>
<path d="M40.696 15.3611V34.8067C40.696 35.087 40.472 35.3112 40.192 35.3112H35.8C35.472 35.3112 35.176 35.111 35.048 34.8147C34.856 34.3502 34.28 34.174 33.856 34.4463C32.328 35.4474 30.496 36.008 28.488 36.008C22.24 36.008 17.776 31.4429 17.776 25.0839C17.776 18.7248 22.24 14.2398 28.488 14.2398C30.496 14.2398 32.32 14.8004 33.848 15.7935C34.328 16.1059 34.968 15.9217 35.2 15.4011C35.352 15.0727 35.68 14.8565 36.048 14.8565H40.192C40.472 14.8565 40.696 15.0808 40.696 15.3611ZM34 25.0999C34 22.4409 32.064 20.4467 29.424 20.4467C26.784 20.4467 24.848 22.4409 24.848 25.0999C24.848 27.7588 26.784 29.7691 29.424 29.7691C32.064 29.7691 34 27.7749 34 25.0999Z" fill="#42C1E8"/>
<path d="M57.168 14.2318C63.456 14.2318 67.904 18.7568 67.904 25.1159C67.904 31.475 63.456 36 57.168 36C55.168 36 53.352 35.4394 51.84 34.4383C51.392 34.1419 50.784 34.3181 50.568 34.8147C50.432 35.127 50.12 35.3353 49.776 35.3353H45.64C45.36 35.3353 45.136 35.111 45.136 34.8307V7.99288C45.136 7.71257 45.36 7.48832 45.64 7.48832H51.592C51.872 7.48832 52.096 7.71257 52.096 7.99288V15.6494C53.56 14.7444 55.28 14.2398 57.176 14.2398L57.168 14.2318ZM60.8 25.1159C60.8 22.4409 58.864 20.4467 56.224 20.4467C53.584 20.4467 51.648 22.4409 51.648 25.1159C51.648 27.7909 53.584 29.7611 56.224 29.7611C58.864 29.7611 60.8 27.7669 60.8 25.1159Z" fill="#42C1E8"/>
<path d="M71.632 14.8725H77.6641C77.9441 14.8725 78.168 15.0968 78.168 15.3771V34.8227C78.168 35.103 77.9441 35.3273 77.6641 35.3273H71.632C71.352 35.3273 71.1281 35.103 71.1281 34.8227V15.3771C71.1281 15.0968 71.352 14.8725 71.632 14.8725Z" fill="#42C1E8"/>
<path d="M74.648 10.7159C77.6038 10.7159 80 8.31707 80 5.35795C80 2.39884 77.6038 0 74.648 0C71.6922 0 69.296 2.39884 69.296 5.35795C69.296 8.31707 71.6922 10.7159 74.648 10.7159Z" fill="#F2336E"/>
</g>
<defs>
<clipPath id="clip0_288_2477">
<rect width="80" height="36" fill="white"/>
</clipPath>
</defs>
</svg>
